# xmcd CD database file
#
# Track frame offsets:
#	150
#	4482
#	25837
#	48325
#	75177
#	98887
#	124095
#	143447
#	167530
#	185652
#	208042
#
# Disc length: 2820 seconds
#
# Revision: 0
# Processed by: cddbd v1.5.1PL2 Copyright (c) Steve Scherf et al.
# Submitted via: CDex 1.51
#
DISCID=850b020b
DTITLE=ELLIS - "Love is here"
DYEAR=1990
DGENRE=J-Pop
TTITLE0=PROLOGUE
TTITLE1=夢の中でKISSするなんて
TTITLE2=ハートじかけの未来
TTITLE3=虹色バタフライ
TTITLE4=森へ帰ろう
TTITLE5=うしろから抱きしめて
TTITLE6=SEED OF LOVE
TTITLE7=TOMORROW(Re-Mix)
TTITLE8=HAPPY BIRTHDAY
TTITLE9=サリー(FOR AFRICAN ELEPHANTS)
TTITLE10=EPILOGUE
EXTD=YEAR: 1990
EXTT0=
EXTT1=
EXTT2=
EXTT3=
EXTT4=
EXTT5=
EXTT6=
EXTT7=
EXTT8=
EXTT9=
EXTT10=
PLAYORDER=
